<mxfile host="app.diagrams.net" modified="2021-10-09T15:47:19.616Z" agent="5.0 (Windows NT 10.0; Win64; x64) AppleWebKit/537.36 (KHTML, like Gecko) Chrome/94.0.4606.81 Safari/537.36" etag="xYEF6aVi7MBV_R-gpX_f" version="15.5.0" type="github">
  <diagram id="A2gb6ovF-wNH_0Qie81E" name="Page-1">
    <mxGraphModel dx="2310" dy="781" grid="1" gridSize="10" guides="1" tooltips="1" connect="1" arrows="1" fold="1" page="1" pageScale="1" pageWidth="827" pageHeight="1169" math="0" shadow="0">
      <root>
        <mxCell id="0" />
        <mxCell id="1" parent="0" />
        <mxCell id="3Y7rejbO8p2I4icDClnW-1" value="" style="rounded=0;whiteSpace=wrap;html=1;" parent="1" vertex="1">
          <mxGeometry x="90" y="230" width="410" height="470" as="geometry" />
        </mxCell>
        <mxCell id="3Y7rejbO8p2I4icDClnW-2" value="LocalStorage" style="text;html=1;strokeColor=none;fillColor=none;align=center;verticalAlign=middle;whiteSpace=wrap;rounded=0;" parent="1" vertex="1">
          <mxGeometry x="265" y="240" width="60" height="30" as="geometry" />
        </mxCell>
        <mxCell id="4B0oqPqM5RAnGnxoc8f9-5" value="AccountList" style="swimlane;fontStyle=0;childLayout=stackLayout;horizontal=1;startSize=26;horizontalStack=0;resizeParent=1;resizeParentMax=0;resizeLast=0;collapsible=1;marginBottom=0;align=center;fontSize=14;" vertex="1" parent="1">
          <mxGeometry x="110" y="290" width="160" height="116" as="geometry" />
        </mxCell>
        <mxCell id="4B0oqPqM5RAnGnxoc8f9-6" value="Admin (default)" style="text;strokeColor=none;fillColor=none;spacingLeft=4;spacingRight=4;overflow=hidden;rotatable=0;points=[[0,0.5],[1,0.5]];portConstraint=eastwest;fontSize=12;" vertex="1" parent="4B0oqPqM5RAnGnxoc8f9-5">
          <mxGeometry y="26" width="160" height="30" as="geometry" />
        </mxCell>
        <mxCell id="4B0oqPqM5RAnGnxoc8f9-7" value="New user" style="text;strokeColor=none;fillColor=none;spacingLeft=4;spacingRight=4;overflow=hidden;rotatable=0;points=[[0,0.5],[1,0.5]];portConstraint=eastwest;fontSize=12;" vertex="1" parent="4B0oqPqM5RAnGnxoc8f9-5">
          <mxGeometry y="56" width="160" height="30" as="geometry" />
        </mxCell>
        <mxCell id="4B0oqPqM5RAnGnxoc8f9-8" value="&gt; Check login" style="text;strokeColor=none;fillColor=none;spacingLeft=4;spacingRight=4;overflow=hidden;rotatable=0;points=[[0,0.5],[1,0.5]];portConstraint=eastwest;fontSize=12;" vertex="1" parent="4B0oqPqM5RAnGnxoc8f9-5">
          <mxGeometry y="86" width="160" height="30" as="geometry" />
        </mxCell>
        <mxCell id="4B0oqPqM5RAnGnxoc8f9-13" value="Account" style="swimlane;fontStyle=0;childLayout=stackLayout;horizontal=1;startSize=30;horizontalStack=0;resizeParent=1;resizeParentMax=0;resizeLast=0;collapsible=1;marginBottom=0;" vertex="1" parent="1">
          <mxGeometry x="-170" y="335" width="140" height="120" as="geometry" />
        </mxCell>
        <mxCell id="4B0oqPqM5RAnGnxoc8f9-14" value="username" style="text;strokeColor=none;fillColor=none;align=left;verticalAlign=middle;spacingLeft=4;spacingRight=4;overflow=hidden;points=[[0,0.5],[1,0.5]];portConstraint=eastwest;rotatable=0;" vertex="1" parent="4B0oqPqM5RAnGnxoc8f9-13">
          <mxGeometry y="30" width="140" height="30" as="geometry" />
        </mxCell>
        <mxCell id="4B0oqPqM5RAnGnxoc8f9-15" value="password" style="text;strokeColor=none;fillColor=none;align=left;verticalAlign=middle;spacingLeft=4;spacingRight=4;overflow=hidden;points=[[0,0.5],[1,0.5]];portConstraint=eastwest;rotatable=0;" vertex="1" parent="4B0oqPqM5RAnGnxoc8f9-13">
          <mxGeometry y="60" width="140" height="30" as="geometry" />
        </mxCell>
        <mxCell id="4B0oqPqM5RAnGnxoc8f9-16" value="id" style="text;strokeColor=none;fillColor=none;align=left;verticalAlign=middle;spacingLeft=4;spacingRight=4;overflow=hidden;points=[[0,0.5],[1,0.5]];portConstraint=eastwest;rotatable=0;" vertex="1" parent="4B0oqPqM5RAnGnxoc8f9-13">
          <mxGeometry y="90" width="140" height="30" as="geometry" />
        </mxCell>
        <mxCell id="4B0oqPqM5RAnGnxoc8f9-17" value="" style="endArrow=none;html=1;rounded=0;edgeStyle=orthogonalEdgeStyle;" edge="1" parent="1">
          <mxGeometry relative="1" as="geometry">
            <mxPoint x="-30" y="347.29" as="sourcePoint" />
            <mxPoint x="110" y="347" as="targetPoint" />
            <Array as="points">
              <mxPoint x="90" y="347.29" />
              <mxPoint x="90" y="347.29" />
            </Array>
          </mxGeometry>
        </mxCell>
        <mxCell id="4B0oqPqM5RAnGnxoc8f9-23" value="ProductList" style="swimlane;fontStyle=0;childLayout=stackLayout;horizontal=1;startSize=26;horizontalStack=0;resizeParent=1;resizeParentMax=0;resizeLast=0;collapsible=1;marginBottom=0;align=center;fontSize=14;" vertex="1" parent="1">
          <mxGeometry x="305" y="290" width="160" height="116" as="geometry" />
        </mxCell>
        <mxCell id="4B0oqPqM5RAnGnxoc8f9-24" value="List product (default)" style="text;strokeColor=none;fillColor=none;spacingLeft=4;spacingRight=4;overflow=hidden;rotatable=0;points=[[0,0.5],[1,0.5]];portConstraint=eastwest;fontSize=12;" vertex="1" parent="4B0oqPqM5RAnGnxoc8f9-23">
          <mxGeometry y="26" width="160" height="30" as="geometry" />
        </mxCell>
        <mxCell id="4B0oqPqM5RAnGnxoc8f9-25" value="Add/remove product" style="text;strokeColor=none;fillColor=none;spacingLeft=4;spacingRight=4;overflow=hidden;rotatable=0;points=[[0,0.5],[1,0.5]];portConstraint=eastwest;fontSize=12;" vertex="1" parent="4B0oqPqM5RAnGnxoc8f9-23">
          <mxGeometry y="56" width="160" height="30" as="geometry" />
        </mxCell>
        <mxCell id="4B0oqPqM5RAnGnxoc8f9-26" value="&gt; If login as admin can change" style="text;strokeColor=none;fillColor=none;spacingLeft=4;spacingRight=4;overflow=hidden;rotatable=0;points=[[0,0.5],[1,0.5]];portConstraint=eastwest;fontSize=12;" vertex="1" parent="4B0oqPqM5RAnGnxoc8f9-23">
          <mxGeometry y="86" width="160" height="30" as="geometry" />
        </mxCell>
        <mxCell id="4B0oqPqM5RAnGnxoc8f9-29" value="product-id" style="swimlane;fontStyle=0;childLayout=stackLayout;horizontal=1;startSize=26;horizontalStack=0;resizeParent=1;resizeParentMax=0;resizeLast=0;collapsible=1;marginBottom=0;align=center;fontSize=14;" vertex="1" parent="1">
          <mxGeometry x="580" y="339" width="160" height="116" as="geometry" />
        </mxCell>
        <mxCell id="4B0oqPqM5RAnGnxoc8f9-30" value="name" style="text;strokeColor=none;fillColor=none;spacingLeft=4;spacingRight=4;overflow=hidden;rotatable=0;points=[[0,0.5],[1,0.5]];portConstraint=eastwest;fontSize=12;" vertex="1" parent="4B0oqPqM5RAnGnxoc8f9-29">
          <mxGeometry y="26" width="160" height="30" as="geometry" />
        </mxCell>
        <mxCell id="4B0oqPqM5RAnGnxoc8f9-31" value="price" style="text;strokeColor=none;fillColor=none;spacingLeft=4;spacingRight=4;overflow=hidden;rotatable=0;points=[[0,0.5],[1,0.5]];portConstraint=eastwest;fontSize=12;" vertex="1" parent="4B0oqPqM5RAnGnxoc8f9-29">
          <mxGeometry y="56" width="160" height="30" as="geometry" />
        </mxCell>
        <mxCell id="4B0oqPqM5RAnGnxoc8f9-32" value="img" style="text;strokeColor=none;fillColor=none;spacingLeft=4;spacingRight=4;overflow=hidden;rotatable=0;points=[[0,0.5],[1,0.5]];portConstraint=eastwest;fontSize=12;" vertex="1" parent="4B0oqPqM5RAnGnxoc8f9-29">
          <mxGeometry y="86" width="160" height="30" as="geometry" />
        </mxCell>
        <mxCell id="4B0oqPqM5RAnGnxoc8f9-37" value="" style="endArrow=none;html=1;rounded=0;edgeStyle=orthogonalEdgeStyle;" edge="1" parent="1">
          <mxGeometry relative="1" as="geometry">
            <mxPoint x="465" y="347.28999999999996" as="sourcePoint" />
            <mxPoint x="575" y="347.28999999999996" as="targetPoint" />
          </mxGeometry>
        </mxCell>
        <mxCell id="4B0oqPqM5RAnGnxoc8f9-39" value="Admin" style="swimlane;childLayout=stackLayout;horizontal=1;startSize=30;horizontalStack=0;rounded=1;fontSize=14;fontStyle=0;strokeWidth=2;resizeParent=0;resizeLast=1;shadow=0;dashed=0;align=center;" vertex="1" parent="1">
          <mxGeometry x="10" y="50" width="280" height="120" as="geometry" />
        </mxCell>
        <mxCell id="4B0oqPqM5RAnGnxoc8f9-40" value="+ Quản lý sản phẩm: thêm xóa sửa&#xa;+ Quản lý người dùng: thêm xóa sửa&#xa;+ Quản lý đơn hàng đặt: xác nhận tình trạng&#xa;+ Thống kê kinh doanh: doanh thu" style="align=left;strokeColor=none;fillColor=none;spacingLeft=4;fontSize=12;verticalAlign=top;resizable=0;rotatable=0;part=1;" vertex="1" parent="4B0oqPqM5RAnGnxoc8f9-39">
          <mxGeometry y="30" width="280" height="90" as="geometry" />
        </mxCell>
        <mxCell id="4B0oqPqM5RAnGnxoc8f9-45" value="CartList" style="swimlane;fontStyle=0;childLayout=stackLayout;horizontal=1;startSize=26;horizontalStack=0;resizeParent=1;resizeParentMax=0;resizeLast=0;collapsible=1;marginBottom=0;align=center;fontSize=14;" vertex="1" parent="1">
          <mxGeometry x="305" y="468" width="160" height="86" as="geometry" />
        </mxCell>
        <mxCell id="4B0oqPqM5RAnGnxoc8f9-46" value="Card.id == account.id" style="text;strokeColor=none;fillColor=none;spacingLeft=4;spacingRight=4;overflow=hidden;rotatable=0;points=[[0,0.5],[1,0.5]];portConstraint=eastwest;fontSize=12;" vertex="1" parent="4B0oqPqM5RAnGnxoc8f9-45">
          <mxGeometry y="26" width="160" height="30" as="geometry" />
        </mxCell>
        <mxCell id="4B0oqPqM5RAnGnxoc8f9-47" value="ProductList thêm số lượng" style="text;strokeColor=none;fillColor=none;spacingLeft=4;spacingRight=4;overflow=hidden;rotatable=0;points=[[0,0.5],[1,0.5]];portConstraint=eastwest;fontSize=12;" vertex="1" parent="4B0oqPqM5RAnGnxoc8f9-45">
          <mxGeometry y="56" width="160" height="30" as="geometry" />
        </mxCell>
        <mxCell id="4B0oqPqM5RAnGnxoc8f9-58" value="" style="endArrow=none;html=1;rounded=0;edgeStyle=orthogonalEdgeStyle;entryX=1;entryY=0.5;entryDx=0;entryDy=0;" edge="1" parent="1" target="4B0oqPqM5RAnGnxoc8f9-47">
          <mxGeometry relative="1" as="geometry">
            <mxPoint x="465" y="370" as="sourcePoint" />
            <mxPoint x="540" y="540" as="targetPoint" />
            <Array as="points">
              <mxPoint x="560" y="370" />
              <mxPoint x="560" y="540" />
              <mxPoint x="465" y="540" />
            </Array>
          </mxGeometry>
        </mxCell>
        <mxCell id="4B0oqPqM5RAnGnxoc8f9-59" value="" style="endArrow=none;html=1;rounded=0;edgeStyle=orthogonalEdgeStyle;entryX=0;entryY=0.5;entryDx=0;entryDy=0;" edge="1" parent="1" target="4B0oqPqM5RAnGnxoc8f9-46">
          <mxGeometry relative="1" as="geometry">
            <mxPoint x="-30" y="440" as="sourcePoint" />
            <mxPoint x="130" y="440" as="targetPoint" />
            <Array as="points">
              <mxPoint x="290" y="440" />
              <mxPoint x="290" y="509" />
            </Array>
          </mxGeometry>
        </mxCell>
        <mxCell id="4B0oqPqM5RAnGnxoc8f9-60" value="OrderList" style="swimlane;fontStyle=0;childLayout=stackLayout;horizontal=1;startSize=26;horizontalStack=0;resizeParent=1;resizeParentMax=0;resizeLast=0;collapsible=1;marginBottom=0;align=center;fontSize=14;" vertex="1" parent="1">
          <mxGeometry x="110" y="468" width="160" height="86" as="geometry" />
        </mxCell>
        <mxCell id="4B0oqPqM5RAnGnxoc8f9-61" value="Order (default for test)" style="text;strokeColor=none;fillColor=none;spacingLeft=4;spacingRight=4;overflow=hidden;rotatable=0;points=[[0,0.5],[1,0.5]];portConstraint=eastwest;fontSize=12;" vertex="1" parent="4B0oqPqM5RAnGnxoc8f9-60">
          <mxGeometry y="26" width="160" height="30" as="geometry" />
        </mxCell>
        <mxCell id="4B0oqPqM5RAnGnxoc8f9-62" value="New order" style="text;strokeColor=none;fillColor=none;spacingLeft=4;spacingRight=4;overflow=hidden;rotatable=0;points=[[0,0.5],[1,0.5]];portConstraint=eastwest;fontSize=12;" vertex="1" parent="4B0oqPqM5RAnGnxoc8f9-60">
          <mxGeometry y="56" width="160" height="30" as="geometry" />
        </mxCell>
        <mxCell id="4B0oqPqM5RAnGnxoc8f9-65" value="User" style="swimlane;childLayout=stackLayout;horizontal=1;startSize=30;horizontalStack=0;rounded=1;fontSize=14;fontStyle=0;strokeWidth=2;resizeParent=0;resizeLast=1;shadow=0;dashed=0;align=center;" vertex="1" parent="1">
          <mxGeometry x="340" y="50" width="280" height="120" as="geometry" />
        </mxCell>
        <mxCell id="4B0oqPqM5RAnGnxoc8f9-66" value="+ Thêm sản phẩm vào giỏ hàng&#xa;+ Xóa sản phẩm khỏi giỏ hàng&#xa;+ Đặt hàng&#xa;+ Xem trạng thái đặt hàng&#xa;" style="align=left;strokeColor=none;fillColor=none;spacingLeft=4;fontSize=12;verticalAlign=top;resizable=0;rotatable=0;part=1;" vertex="1" parent="4B0oqPqM5RAnGnxoc8f9-65">
          <mxGeometry y="30" width="280" height="90" as="geometry" />
        </mxCell>
        <mxCell id="4B0oqPqM5RAnGnxoc8f9-68" value="List" style="swimlane;fontStyle=0;childLayout=stackLayout;horizontal=1;startSize=26;horizontalStack=0;resizeParent=1;resizeParentMax=0;resizeLast=0;collapsible=1;marginBottom=0;align=center;fontSize=14;" vertex="1" parent="1">
          <mxGeometry x="200" y="570" width="160" height="116" as="geometry" />
        </mxCell>
        <mxCell id="4B0oqPqM5RAnGnxoc8f9-69" value="Item 1" style="text;strokeColor=none;fillColor=none;spacingLeft=4;spacingRight=4;overflow=hidden;rotatable=0;points=[[0,0.5],[1,0.5]];portConstraint=eastwest;fontSize=12;" vertex="1" parent="4B0oqPqM5RAnGnxoc8f9-68">
          <mxGeometry y="26" width="160" height="30" as="geometry" />
        </mxCell>
        <mxCell id="4B0oqPqM5RAnGnxoc8f9-70" value="Item 2" style="text;strokeColor=none;fillColor=none;spacingLeft=4;spacingRight=4;overflow=hidden;rotatable=0;points=[[0,0.5],[1,0.5]];portConstraint=eastwest;fontSize=12;" vertex="1" parent="4B0oqPqM5RAnGnxoc8f9-68">
          <mxGeometry y="56" width="160" height="30" as="geometry" />
        </mxCell>
        <mxCell id="4B0oqPqM5RAnGnxoc8f9-71" value="Item 3" style="text;strokeColor=none;fillColor=none;spacingLeft=4;spacingRight=4;overflow=hidden;rotatable=0;points=[[0,0.5],[1,0.5]];portConstraint=eastwest;fontSize=12;" vertex="1" parent="4B0oqPqM5RAnGnxoc8f9-68">
          <mxGeometry y="86" width="160" height="30" as="geometry" />
        </mxCell>
      </root>
    </mxGraphModel>
  </diagram>
</mxfile>
